<?xml version="1.0" standalone="no"?>
<!DOCTYPE svg PUBLIC "-//W3C//DTD SVG 20010904//EN"
 "http://www.w3.org/TR/2001/REC-SVG-20010904/DTD/svg10.dtd">
<svg version="1.0" xmlns="http://www.w3.org/2000/svg"
 width="512.000000pt" height="512.000000pt" viewBox="0 0 512.000000 512.000000"
 preserveAspectRatio="xMidYMid meet">
<metadata>
Created by potrace 1.14, written by Peter Selinger 2001-2017
</metadata>
<g transform="translate(0.000000,512.000000) scale(0.100000,-0.100000)"
fill="#000000" stroke="none">
<path d="M0 2560 l0 -2560 2560 0 2560 0 0 2560 0 2560 -2560 0 -2560 0 0
-2560z m2841 1833 c23 -65 61 -167 83 -228 l41 -110 75 -5 75 -4 -71 -6 -71
-5 55 -154 c49 -134 57 -151 69 -135 7 10 16 14 20 10 4 -4 2 -10 -4 -14 -8
-5 -7 -12 3 -26 7 -11 16 -17 20 -14 14 15 62 162 57 175 -4 9 1 21 9 27 22
16 58 78 58 99 0 21 23 22 40 2 16 -19 3 -40 -16 -24 -11 9 -17 5 -29 -24 -19
-45 -19 -47 0 -47 8 0 15 -7 15 -15 0 -8 3 -15 8 -15 4 0 15 -12 25 -25 13
-18 15 -30 8 -43 -9 -16 -10 -16 -16 0 -5 12 -17 17 -41 16 -39 -1 -36 -13 3
-13 32 0 42 -21 14 -30 -30 -9 -61 11 -56 37 3 12 10 25 17 30 10 6 9 8 -4 8
-9 0 -20 -13 -26 -29 -11 -33 3 -52 46 -66 19 -5 21 -9 11 -21 -13 -16 -33
-19 -24 -4 3 6 1 10 -4 10 -6 0 -11 -5 -11 -11 0 -5 -6 -7 -12 -3 -7 4 -10 4
-6 -1 4 -4 4 -13 -1 -19 -4 -6 -11 -18 -14 -27 -4 -13 -1 -16 15 -11 15 3 16
7 6 13 -10 6 -10 11 -1 20 7 7 16 10 19 6 11 -11 14 -67 4 -67 -6 0 -10 5 -10
11 0 6 -6 9 -12 6 -7 -2 -12 -9 -11 -15 1 -5 -11 -9 -27 -8 -17 1 -30 -1 -30
-6 0 -4 7 -9 15 -9 8 -1 23 -2 33 -3 9 -1 22 -5 29 -9 6 -4 18 -5 26 -1 9 3
17 -3 21 -18 8 -33 8 -34 -15 -35 -17 -2 -19 1 -10 10 6 6 11 16 11 22 0 5 -5
2 -11 -7 -5 -10 -21 -18 -34 -18 -14 0 -25 -6 -25 -12 0 -9 -3 -9 -9 1 -5 8
-7 20 -4 28 3 7 0 13 -7 13 -6 0 -8 5 -5 10 3 6 -1 10 -10 10 -12 0 -14 -6 -9
-27 4 -16 11 -31 16 -34 6 -3 9 -10 9 -15 0 -5 4 -22 8 -39 5 -16 10 -22 10
-12 1 9 7 17 15 17 24 0 30 22 11 37 -18 12 -18 13 4 13 13 0 19 -4 16 -10 -4
-7 2 -9 19 -4 16 4 26 2 26 -5 0 -6 -4 -11 -9 -11 -5 0 -7 -9 -4 -20 3 -12 0
-20 -6 -20 -7 0 -9 -5 -5 -11 4 -8 9 -7 15 2 7 11 9 10 9 -4 0 -27 33 -64 53
-61 10 1 16 -3 14 -9 -2 -7 3 -21 12 -32 9 -11 9 -15 1 -8 -11 10 -17 10 -29
0 -10 -8 -12 -8 -8 -1 4 7 0 15 -9 18 -27 11 -37 7 -24 -9 11 -13 8 -15 -15
-15 -24 0 -26 2 -14 18 8 11 5 10 -9 -4 -21 -19 -22 -23 -9 -52 7 -18 17 -29
21 -25 4 4 4 0 1 -8 -3 -9 -1 -28 4 -42 8 -21 18 -27 43 -28 31 -2 31 -2 6 -6
-16 -2 -28 -7 -28 -11 -1 -22 256 -709 264 -705 5 4 6 1 2 -5 -8 -13 125 -383
136 -376 4 3 5 -1 3 -8 -5 -13 67 -221 254 -731 50 -137 91 -253 91 -258 0 -6
-79 -8 -197 -7 l-198 3 -67 194 c-37 106 -70 196 -73 199 -8 8 -34 -30 -35
-53 -1 -11 -4 -14 -7 -7 -8 20 -24 13 -21 -10 2 -11 -3 -23 -9 -25 -7 -3 -13
0 -13 6 0 6 -7 11 -15 11 -8 0 -15 6 -15 14 0 15 -28 73 -45 91 -6 7 -16 10
-23 7 -17 -5 -15 1 9 42 19 32 19 37 5 57 -14 21 -14 24 5 40 18 16 23 16 35
4 8 -7 14 -20 14 -29 0 -8 5 -18 11 -22 6 -3 9 -15 6 -25 -3 -11 -1 -16 5 -13
5 4 7 21 3 40 -4 23 -2 34 6 34 6 0 9 -7 5 -15 -3 -8 -1 -15 4 -15 5 0 5 -13
-1 -32 -5 -17 -6 -34 -4 -37 3 -2 5 1 5 8 0 9 5 9 20 1 17 -9 20 -8 20 9 0 11
-4 30 -9 43 -5 13 -10 28 -11 33 -3 13 -136 395 -145 418 -7 16 -36 17 -468
15 l-461 -3 -10 -35 c-5 -19 -18 -41 -28 -48 -10 -7 -16 -17 -13 -22 7 -11
-31 -51 -39 -43 -3 4 -6 2 -6 -4 0 -13 -80 -7 -94 7 -8 8 -1 30 27 81 l38 70
-41 -3 c-22 -1 -40 -6 -40 -10 0 -8 16 -12 33 -9 5 1 6 -3 2 -9 -3 -5 -12 -10
-18 -10 -7 0 -18 -9 -25 -20 -14 -23 -27 -20 -35 10 -3 11 -1 18 3 15 5 -3 14
4 20 15 11 20 8 20 -134 20 l-144 0 -25 -75 c-24 -70 -24 -75 -7 -80 10 -3 29
0 43 6 23 10 29 8 59 -21 18 -18 25 -30 16 -27 -23 8 -31 -20 -10 -32 12 -7
-5 -9 -55 -7 -56 3 -77 0 -91 -13 -22 -19 -52 -93 -51 -124 0 -12 3 -16 6 -9
2 6 8 12 13 12 9 0 8 -19 -3 -36 -4 -7 0 -15 9 -18 23 -9 84 4 84 17 0 17 14
-2 15 -21 1 -13 -6 -17 -29 -17 -20 0 -30 -5 -28 -12 1 -7 -3 -13 -9 -13 -5 0
-7 -5 -3 -12 4 -6 3 -8 -3 -5 -14 9 -37 -19 -28 -33 5 -8 11 -8 21 1 14 12 33
5 21 -8 -11 -10 -68 -8 -75 4 -4 5 -15 12 -24 16 -14 5 -21 -7 -38 -61 -12
-37 -28 -81 -36 -99 -8 -17 -14 -36 -14 -42 0 -6 27 -58 60 -114 33 -57 60
-108 60 -113 0 -48 -361 -577 -380 -557 -7 6 -830 1441 -1091 1901 l-58 102
97 0 c122 0 416 18 502 30 60 9 67 8 86 -13 12 -12 126 -203 252 -425 203
-354 232 -401 242 -383 11 22 10 25 -45 116 -14 22 -25 48 -25 57 0 10 -11 25
-24 33 -13 9 -36 40 -50 70 -13 29 -29 56 -34 59 -6 3 -8 16 -4 28 3 14 2 19
-6 14 -8 -5 -12 0 -12 12 0 11 -7 25 -15 32 -8 7 -15 21 -15 31 0 10 -4 21
-10 24 -5 3 -10 15 -10 26 0 10 -4 19 -10 19 -5 0 -12 16 -16 35 -3 19 -12 35
-18 35 -7 0 -22 18 -35 40 -12 22 -27 39 -34 37 -7 -1 -11 4 -9 11 4 23 -27
84 -39 76 -8 -4 -9 -3 -5 4 4 6 2 21 -5 33 -9 17 -13 19 -20 8 -6 -10 -10 -7
-17 12 -14 35 -6 86 21 133 122 212 351 585 512 831 43 66 103 158 132 203 59
91 85 106 34 20 -18 -29 -23 -43 -12 -31 10 13 30 27 43 32 15 5 34 30 51 65
15 30 36 60 47 66 26 14 35 12 20 -5 -10 -12 10 -52 107 -219 65 -113 121
-202 124 -198 4 4 45 112 92 241 l86 234 -82 -7 c-173 -14 -192 -15 -177 -10
8 2 71 10 139 17 l125 12 90 248 91 247 211 0 212 0 43 -117z m-938 -420 c-7
-2 -21 -2 -30 0 -10 3 -4 5 12 5 17 0 24 -2 18 -5z m1504 -34 c37 -46 177
-288 171 -294 -2 -3 -37 53 -78 123 -40 70 -89 146 -107 170 -19 23 -31 42
-26 41 4 0 22 -18 40 -40z m-1564 24 c-7 -2 -19 -2 -25 0 -7 3 -2 5 12 5 14 0
19 -2 13 -5z m1503 -68 c3 -14 10 -22 15 -19 5 3 9 -2 9 -10 0 -9 4 -16 9 -16
5 0 11 -7 15 -15 10 -28 -32 3 -49 35 -9 17 -20 30 -25 30 -6 0 -10 5 -10 10
0 21 30 9 36 -15z m92 -132 c-1 -10 12 -38 30 -62 18 -24 32 -48 32 -53 0 -17
53 -88 61 -82 5 3 9 -2 9 -11 0 -9 7 -24 16 -33 11 -10 13 -17 6 -20 -6 -2 2
-16 18 -32 28 -27 76 -108 72 -122 -1 -4 -3 -21 -4 -37 -1 -17 -6 -31 -11 -31
-4 0 -7 -8 -6 -17 4 -24 -10 -63 -22 -63 -6 0 -8 -4 -5 -9 4 -5 0 -11 -6 -14
-9 -3 -7 -10 7 -22 20 -16 20 -16 -2 -12 -12 3 -24 0 -27 -7 -2 -6 -5 -3 -5 7
-1 10 4 27 9 38 10 17 7 19 -20 19 -16 0 -30 4 -30 9 0 4 12 7 28 5 15 -2 19
-1 10 2 -10 3 -18 9 -18 13 0 13 22 30 34 25 17 -7 48 53 41 77 -5 16 -9 18
-15 9 -4 -7 -14 -10 -22 -7 -8 3 -21 1 -29 -4 -10 -6 -10 -9 -1 -9 6 0 12 -5
12 -11 0 -5 -6 -7 -12 -3 -9 5 -8 2 1 -10 10 -12 11 -20 4 -27 -8 -8 -13 -7
-18 2 -6 8 -4 10 5 4 9 -5 11 -4 6 3 -10 17 -29 15 -23 -1 3 -8 2 -19 -2 -26
-9 -14 -81 223 -81 266 0 27 26 25 39 -4 12 -26 36 -27 37 -2 0 15 -24 71 -35
79 -4 3 -17 25 -29 50 -12 25 -22 41 -22 35 0 -5 -11 8 -23 30 -20 34 -25 75
-10 75 2 0 3 -8 1 -17z m-24 -49 c8 -21 8 -69 -1 -61 -3 4 -15 0 -25 -10 -20
-18 -25 -4 -5 16 10 10 9 11 -5 6 -22 -9 -24 15 -6 45 15 24 34 26 42 4z
m-2456 -86 c82 -128 243 -411 239 -422 -5 -14 -28 24 -154 244 -108 189 -136
240 -129 240 2 0 22 -28 44 -62z m2472 2 c0 -5 -5 -10 -11 -10 -5 0 -7 5 -4
10 3 6 8 10 11 10 2 0 4 -4 4 -10z m-134 -28 c-3 -3 2 -11 12 -19 10 -9 11
-12 2 -7 -10 5 -9 1 4 -14 10 -12 23 -19 27 -16 10 6 11 1 3 -19 -3 -9 -13
-13 -25 -10 -17 5 -18 3 -9 -21 13 -34 13 -36 -2 -36 -6 0 -8 3 -5 7 4 3 -2
12 -13 20 -19 13 -29 40 -11 29 4 -3 16 3 26 14 16 17 16 20 3 20 -9 0 -21 14
-27 31 -14 40 -14 40 4 32 9 -3 13 -8 11 -11z m124 -6 c0 -2 -37 0 -48 3 -2 1
0 6 3 11 5 9 45 -3 45 -14z m-42 -31 c-3 -3 -9 2 -12 12 -6 14 -5 15 5 6 7 -7
10 -15 7 -18z m37 -182 c0 -6 4 -15 9 -20 5 -5 6 -3 2 5 -4 6 -2 12 3 12 13 0
15 -17 3 -24 -11 -7 -27 6 -35 27 -5 13 -3 17 5 15 7 -3 13 -10 13 -15z m375
-93 c6 -11 8 -20 6 -20 -3 0 -10 9 -16 20 -6 11 -8 20 -6 20 3 0 10 -9 16 -20z
m-37 -67 c3 -5 8 -23 12 -40 5 -24 3 -33 -6 -33 -7 0 -10 3 -6 6 3 4 0 19 -8
35 -8 15 -15 30 -15 34 0 8 18 6 23 -2z m-202 -200 c-12 -20 -14 -14 -5 12 4
9 9 14 11 11 3 -2 0 -13 -6 -23z m-2551 -107 c0 -2 -3 -11 -6 -20 -7 -17 -34
-22 -34 -6 0 6 -7 10 -15 10 -31 0 -14 16 20 18 19 2 35 1 35 -2z m2950 -48
c0 -5 -4 -8 -8 -8 -9 0 -32 44 -32 58 1 9 39 -41 40 -50z m-3066 -183 c-4 -8
-12 -15 -20 -15 -20 0 -17 18 4 23 9 3 18 5 19 6 1 0 0 -6 -3 -14z m3896 -73
c0 -4 -57 -8 -127 -10 -71 -1 -191 -5 -268 -8 -97 -4 -137 -3 -130 4 6 6 53
14 105 19 108 9 420 6 420 -5z m-3782 -77 c-3 -3 -9 2 -12 12 -6 14 -5 15 5 6
7 -7 10 -15 7 -18z m2647 -235 c-9 -15 -25 -12 -32 6 -8 21 19 38 30 18 4 -8
5 -19 2 -24z m-415 -290 c0 -5 -4 -10 -10 -10 -5 0 -10 5 -10 10 0 6 5 10 10
10 6 0 10 -4 10 -10z m35 -60 c3 -5 1 -10 -4 -10 -6 0 -11 5 -11 10 0 6 2 10
4 10 3 0 8 -4 11 -10z m-1270 -60 c3 -6 -1 -7 -9 -4 -18 7 -21 14 -7 14 6 0
13 -4 16 -10z m245 0 c0 -5 -4 -10 -10 -10 -5 0 -10 5 -10 10 0 6 5 10 10 10
6 0 10 -4 10 -10z m220 -24 c14 -18 13 -19 -12 -14 -16 3 -28 1 -28 -3 0 -5
-4 -9 -8 -9 -4 0 -8 8 -8 19 0 12 6 17 18 13 10 -2 18 1 18 9 0 7 1 10 3 8 1
-2 9 -13 17 -23z m30 20 c0 -11 -19 -15 -25 -6 -3 5 1 10 9 10 9 0 16 -2 16
-4z m30 -6 c0 -5 -5 -10 -11 -10 -5 0 -7 5 -4 10 3 6 8 10 11 10 2 0 4 -4 4
-10z m110 -19 c0 -11 -4 -23 -10 -26 -5 -3 -10 -2 -10 4 0 5 -3 16 -6 25 -4
11 -1 16 10 16 9 0 16 -8 16 -19z m330 -1 c24 -8 24 -8 -5 -8 -16 0 -39 3 -50
8 -18 8 -18 9 5 8 14 0 36 -4 50 -8z m-1120 -10 c0 -5 -2 -10 -4 -10 -3 0 -8
5 -11 10 -3 6 -1 10 4 10 6 0 11 -4 11 -10z m501 1 c-8 -5 -20 -7 -28 -4 -21
8 -15 13 15 13 20 0 23 -3 13 -9z m409 -7 c0 -2 -7 -4 -15 -4 -8 0 -15 4 -15
10 0 5 7 7 15 4 8 -4 15 -8 15 -10z m-775 -4 c-3 -5 -12 -10 -18 -10 -7 0 -6
4 3 10 19 12 23 12 15 0z m842 -22 c-3 -7 -5 -2 -5 12 0 14 2 19 5 13 2 -7 2
-19 0 -25z m228 23 l-20 -8 20 -5 c18 -5 18 -6 -2 -7 -14 -1 -23 5 -23 14 0 9
9 15 23 14 21 0 21 -1 2 -8z m-993 -31 c10 0 18 -4 18 -10 0 -5 -6 -10 -12
-10 -16 1 -48 24 -48 36 0 4 5 3 12 -4 7 -7 20 -12 30 -12z m659 11 c-9 -6
-10 -11 -2 -15 6 -4 16 -4 23 0 6 4 8 3 4 -4 -8 -14 -46 -11 -46 3 0 15 10 25
24 25 6 0 5 -4 -3 -9z m646 3 c-3 -3 -12 -4 -19 -1 -8 3 -5 6 6 6 11 1 17 -2
13 -5z m-760 -29 c52 -27 51 -30 -6 -15 -20 5 -49 12 -66 16 l-30 7 25 7 c14
5 26 8 27 9 1 1 23 -10 50 -24z m190 19 c-3 -3 -12 -4 -19 -1 -8 3 -5 6 6 6
11 1 17 -2 13 -5z m-970 -20 c-3 -3 -12 -4 -19 -1 -8 3 -5 6 6 6 11 1 17 -2
13 -5z m960 0 c-3 -3 -12 -4 -19 -1 -8 3 -5 6 6 6 11 1 17 -2 13 -5z m82 -21
c2 -2 -8 -3 -22 -3 -20 0 -25 4 -21 15 5 13 9 13 23 3 9 -7 18 -14 20 -15z
m-879 13 c0 -3 -4 -8 -10 -11 -5 -3 -10 -1 -10 4 0 6 5 11 10 11 6 0 10 -2 10
-4z m700 -19 c0 -7 -4 -6 -10 3 -8 12 -10 12 -10 1 0 -8 -3 -12 -6 -8 -9 9 6
28 17 22 5 -4 9 -12 9 -18z m690 13 c0 -5 -5 -10 -11 -10 -5 0 -7 5 -4 10 3 6
8 10 11 10 2 0 4 -4 4 -10z m-1400 -34 c8 -3 4 -4 -10 -3 -16 1 -26 9 -28 22
-3 18 -3 18 10 4 7 -9 20 -19 28 -23z m953 -8 c5 2 7 -4 4 -12 -3 -8 -3 -17 1
-21 4 -4 8 -11 8 -16 1 -5 2 -12 3 -15 0 -4 8 -1 16 6 13 10 15 9 15 -9 0 -25
-17 -27 -48 -6 -20 14 -21 14 -16 0 3 -8 2 -15 -4 -15 -6 0 -12 5 -14 12 -3 8
-12 6 -29 -6 -14 -11 -17 -16 -6 -13 23 8 47 -2 47 -19 0 -8 -7 -14 -15 -14
-8 0 -15 5 -15 11 0 5 -5 7 -11 4 -13 -9 -47 26 -41 43 2 6 14 12 28 12 17 0
22 4 18 15 -4 8 -1 15 5 15 6 0 9 16 7 36 l-3 37 20 -24 c11 -13 24 -23 30
-21z m251 26 c3 -8 2 -12 -4 -9 -6 3 -10 10 -10 16 0 14 7 11 14 -7z m161 6
c-3 -5 -12 -7 -20 -3 -21 7 -19 13 6 13 11 0 18 -4 14 -10z m-623 -22 c-6 -6
-15 -8 -19 -4 -4 4 -1 11 7 16 19 12 27 3 12 -12z m92 -56 c-13 -47 -12 -62 5
-62 21 0 51 -35 51 -60 0 -24 -16 -35 -24 -15 -3 9 -18 15 -37 15 -29 0 -31 2
-27 30 3 17 1 33 -3 35 -4 3 1 23 12 45 10 21 20 47 20 57 1 17 2 17 6 0 3
-10 1 -31 -3 -45z m-956 18 c-11 -18 -28 -27 -28 -16 0 6 30 36 36 36 2 0 -1
-9 -8 -20z m1425 -3 c26 -5 47 -13 47 -18 0 -5 -11 -4 -24 1 -13 5 -26 6 -29
4 -3 -3 -14 -1 -24 4 -15 8 -22 6 -31 -9 -7 -10 -19 -19 -28 -19 -8 0 -13 -4
-9 -9 3 -6 -4 -9 -15 -8 -23 2 -27 15 -5 23 8 4 12 10 9 15 -3 5 -11 6 -17 3
-7 -4 -10 -5 -7 -1 3 3 9 6 13 6 4 0 15 7 24 16 9 10 22 13 32 9 9 -4 37 -11
64 -17z m-1358 -47 c-3 -5 -13 -10 -21 -10 -8 0 -14 5 -14 10 0 6 9 10 21 10
11 0 17 -4 14 -10z m65 0 c12 -8 11 -10 -7 -10 -12 0 -25 5 -28 10 -8 13 15
13 35 0z m1305 -38 c-8 -8 -25 10 -19 20 4 6 9 5 15 -3 4 -7 6 -15 4 -17z
m-1275 8 c0 -5 -5 -10 -11 -10 -5 0 -7 5 -4 10 3 6 8 10 11 10 2 0 4 -4 4 -10z
m-87 -17 c-7 -2 -13 -14 -13 -24 0 -11 -4 -18 -9 -14 -6 3 -13 -1 -18 -9 -4
-7 -24 -17 -43 -20 -26 -5 -31 -4 -20 3 8 6 22 11 31 11 9 0 26 14 39 30 13
17 28 30 34 29 6 0 6 -3 -1 -6z m272 -3 c3 -6 -1 -7 -9 -4 -18 7 -21 14 -7 14
6 0 13 -4 16 -10z m848 -16 c3 -3 3 -12 0 -20 -4 -11 -7 -11 -19 1 -8 7 -14
16 -14 19 0 8 25 8 33 0z m-322 -31 c-8 -15 -10 -15 -11 -2 0 17 10 32 18 25
2 -3 -1 -13 -7 -23z m-431 -24 c0 -12 -7 -19 -20 -19 -22 0 -26 20 -8 38 15
15 28 6 28 -19z m270 21 c0 -5 -4 -10 -10 -10 -5 0 -10 5 -10 10 0 6 5 10 10
10 6 0 10 -4 10 -10z m-640 -10 c0 -5 -5 -10 -11 -10 -5 0 -7 5 -4 10 3 6 8
10 11 10 2 0 4 -4 4 -10z m120 0 c0 -5 -5 -10 -11 -10 -5 0 -7 5 -4 10 3 6 8
10 11 10 2 0 4 -4 4 -10z m480 0 c0 -5 -4 -10 -10 -10 -5 0 -10 5 -10 10 0 6
5 10 10 10 6 0 10 -4 10 -10z m120 0 c0 -5 -4 -10 -10 -10 -5 0 -10 5 -10 10
0 6 5 10 10 10 6 0 10 -4 10 -10z m616 -13 c11 -12 21 -37 22 -57 1 -33 0 -33
-9 -10 -5 14 -16 30 -23 35 -16 12 -31 55 -19 55 4 0 17 -10 29 -23z m-846 -1
c0 -3 -4 -8 -10 -11 -5 -3 -10 -1 -10 4 0 6 5 11 10 11 6 0 10 -2 10 -4z m415
-12 c13 -14 14 -19 3 -26 -8 -5 -3 -6 14 -2 26 6 26 6 16 -34 -9 -36 -11 -38
-32 -29 -15 7 -21 17 -18 29 2 10 -1 18 -7 18 -7 0 -10 4 -7 9 4 5 0 12 -6 14
-8 3 -6 6 4 6 11 1 15 6 12 16 -8 20 1 19 21 -1z m-105 2 c0 -3 -4 -8 -10 -11
-5 -3 -10 -1 -10 4 0 6 5 11 10 11 6 0 10 -2 10 -4z m-152 -49 c2 -15 8 -27
13 -27 5 0 9 -5 9 -10 0 -7 -7 -7 -21 1 -17 9 -23 7 -36 -10 -16 -24 -33 -19
-33 9 0 13 -5 17 -15 14 -10 -4 -15 0 -15 11 0 13 6 16 23 11 16 -4 26 1 35
15 17 26 36 20 40 -14z m762 -16 c-1 -13 -4 -12 -15 3 -8 11 -15 27 -15 35 1
13 4 12 15 -3 8 -11 15 -27 15 -35z m-112 18 c-2 -6 -8 -10 -13 -10 -5 0 -11
4 -13 10 -2 6 4 11 13 11 9 0 15 -5 13 -11z m-1388 -14 c0 -2 -7 -5 -15 -9 -9
-3 -15 0 -15 9 0 9 6 12 15 9 8 -4 15 -7 15 -9z m500 -4 c0 -5 3 -17 7 -27 4
-11 3 -15 -4 -11 -14 9 -24 47 -12 47 5 0 9 -4 9 -9z m-657 -31 c3 -11 11 -19
18 -18 7 2 14 -6 15 -18 1 -23 20 -64 54 -119 12 -19 18 -35 13 -35 -4 0 -33
44 -63 97 -65 115 -64 113 -52 113 5 0 12 -9 15 -20z m167 -10 c0 -5 -7 -7
-15 -4 -8 4 -12 10 -9 15 6 11 24 2 24 -11z m1330 16 c0 -3 -4 -8 -10 -11 -5
-3 -10 -1 -10 4 0 6 5 11 10 11 6 0 10 -2 10 -4z m-990 -37 c0 -5 -7 -6 -15
-3 -8 4 -15 13 -15 21 0 13 3 13 15 3 8 -7 15 -16 15 -21z m75 20 c11 -17 -1
-21 -15 -4 -8 9 -8 15 -2 15 6 0 14 -5 17 -11z m45 3 c0 -13 -12 -22 -22 -16
-10 6 -1 24 13 24 5 0 9 -4 9 -8z m180 -12 c0 -5 -6 -10 -14 -10 -8 0 -18 5
-21 10 -3 6 3 10 14 10 12 0 21 -4 21 -10z m-370 -11 c0 -6 7 -9 15 -5 9 3 15
0 15 -8 0 -12 -6 -12 -29 -3 -17 6 -28 15 -25 19 8 12 24 10 24 -3z m150 -28
c0 -6 -4 -13 -10 -16 -5 -3 -10 -17 -10 -29 0 -15 -7 -26 -20 -29 -14 -3 -20
0 -20 10 0 12 -3 13 -14 4 -15 -13 -32 1 -22 18 3 5 0 11 -8 14 -8 3 -18 -5
-25 -20 -7 -14 -14 -23 -17 -20 -9 9 26 56 44 59 9 2 22 -3 28 -11 10 -12 15
-11 34 7 25 23 40 28 40 13z m410 -1 c0 -5 -10 -10 -22 -9 -22 0 -22 1 -3 9
11 5 21 9 23 9 1 1 2 -3 2 -9z m-559 -23 c-10 -9 -11 -8 -5 6 3 10 9 15 12 12
3 -3 0 -11 -7 -18z m-321 9 c0 -2 -7 -6 -15 -10 -8 -3 -15 -1 -15 4 0 6 7 10
15 10 8 0 15 -2 15 -4z m160 -10 c0 -3 -4 -8 -10 -11 -5 -3 -10 -1 -10 4 0 6
5 11 10 11 6 0 10 -2 10 -4z m75 -23 c-3 -11 -1 -13 10 -9 31 12 14 -4 -20
-18 -19 -8 -35 -22 -35 -30 0 -19 -5 -20 -31 -6 -19 10 -18 13 13 49 22 26 37
37 50 33 12 -3 17 -10 13 -19z m289 1 c3 -8 2 -12 -4 -9 -6 3 -10 10 -10 16 0
14 7 11 14 -7z m-518 -30 c-4 -9 -9 -15 -11 -12 -3 3 -3 13 1 22 4 9 9 15 11
12 3 -3 3 -13 -1 -22z m120 0 c-24 -17 -36 -18 -36 -2 0 6 3 9 6 5 4 -3 13 1
21 9 9 8 18 12 22 9 3 -4 -3 -13 -13 -21z m-46 -10 c0 -8 -4 -14 -10 -14 -5 0
-10 9 -10 21 0 11 5 17 10 14 6 -3 10 -13 10 -21z m520 6 c13 -11 20 -23 16
-27 -4 -4 -10 -3 -14 3 -4 6 -15 13 -24 17 -18 6 -25 27 -10 27 5 0 19 -9 32
-20z m90 10 c0 -5 -5 -10 -11 -10 -5 0 -7 5 -4 10 3 6 8 10 11 10 2 0 4 -4 4
-10z m-400 -25 c0 -8 -4 -15 -10 -15 -5 0 -10 7 -10 15 0 8 5 15 10 15 6 0 10
-7 10 -15z m-53 -1 c-3 -3 -12 -4 -19 -1 -8 3 -5 6 6 6 11 1 17 -2 13 -5z
m-88 -18 c9 -11 8 -15 -5 -20 -20 -8 -39 7 -30 23 10 15 21 14 35 -3z m241
-35 c-10 -19 -8 -21 17 -23 15 -1 40 -1 55 0 15 1 30 -3 33 -8 8 -12 55 -13
55 -1 0 5 -10 11 -22 14 -21 6 -21 7 -3 27 21 23 44 28 25 5 -11 -13 -1 -22
14 -12 7 4 46 -35 41 -43 -7 -12 -118 -12 -125 0 -5 8 -11 8 -21 -2 -14 -14
-91 -19 -83 -6 8 12 -29 26 -88 33 -32 4 -56 11 -53 15 2 4 16 5 30 2 15 -2
25 0 25 7 0 6 5 11 11 11 6 0 9 -7 5 -15 -4 -12 3 -15 30 -15 31 0 37 4 47 33
7 21 12 27 15 15 2 -9 -2 -26 -8 -37z m-122 19 c5 -13 3 -13 -11 -2 -9 8 -21
11 -26 8 -5 -4 -13 -1 -16 5 -5 7 2 9 21 7 15 -2 30 -10 32 -18z m642 10 c0
-5 -2 -10 -4 -10 -3 0 -8 5 -11 10 -3 6 -1 10 4 10 6 0 11 -4 11 -10z m-291
-14 c9 -11 7 -15 -10 -19 -15 -4 -19 -2 -15 8 3 8 -3 16 -12 18 -13 4 -12 5 4
6 12 0 27 -5 33 -13z m41 10 c0 -3 -4 -8 -10 -11 -5 -3 -10 -1 -10 4 0 6 5 11
10 11 6 0 10 -2 10 -4z m-460 -16 c0 -5 -2 -10 -4 -10 -2 0 -12 -3 -22 -7 -16
-6 -17 -5 -4 10 17 19 30 22 30 7z m-65 -30 c3 -6 17 -7 31 -4 14 4 24 2 24
-5 0 -6 17 -11 40 -11 24 0 40 -5 40 -12 0 -8 -31 -9 -114 -5 -116 7 -146 13
-146 27 0 18 114 27 125 10z m200 -30 c16 -7 12 -9 -18 -9 -23 -1 -36 3 -32 9
7 12 23 12 50 0z"/>
<path d="M2555 4118 c-10 -29 -20 -59 -23 -65 -3 -9 9 -13 42 -13 25 0 46 4
46 8 0 14 -32 107 -40 115 -4 5 -16 -15 -25 -45z"/>
<path d="M2498 3953 c-14 -43 -74 -217 -132 -388 -58 -170 -106 -311 -106
-311 0 -1 14 -7 30 -13 17 -5 30 -16 30 -23 0 -9 3 -9 10 2 5 8 12 11 16 7 4
-3 2 -13 -4 -20 -7 -8 -8 -18 -4 -23 4 -4 0 -4 -8 1 -22 15 -44 12 -64 -8 -10
-9 -22 -15 -27 -12 -22 14 -5 -29 39 -102 26 -43 72 -121 102 -173 29 -52 60
-104 68 -115 13 -18 14 -18 8 -1 -4 12 0 23 11 31 10 8 15 16 12 20 -4 3 -14
-1 -22 -10 -9 -8 -18 -11 -21 -6 -3 5 1 11 9 15 9 3 12 12 8 22 -6 16 -7 16
-18 0 -11 -14 -14 -13 -26 16 -7 18 -17 36 -23 40 -6 4 -7 10 -3 14 3 4 16 -4
27 -17 13 -16 18 -18 14 -6 -4 11 -1 17 10 17 13 0 15 7 10 40 -5 32 -4 40 7
38 8 -2 14 5 14 17 0 11 -6 19 -12 18 -7 -2 -12 2 -10 8 1 6 -4 14 -12 17 -8
3 -11 0 -7 -7 4 -6 1 -11 -8 -11 -16 0 -20 16 -16 54 1 10 -4 23 -12 27 -9 6
-7 9 8 9 12 0 25 -7 28 -16 3 -8 11 -12 17 -8 8 5 8 1 0 -14 -12 -23 0 -38 21
-26 6 4 8 3 5 -4 -4 -6 0 -8 10 -6 18 5 24 48 10 70 -5 9 -4 21 2 53 1 2 7 -2
15 -8 10 -9 16 -8 26 4 9 11 17 12 32 4 18 -10 19 -9 7 13 -15 27 -39 53 -39
41 0 -5 -9 -9 -21 -9 -15 0 -19 5 -15 21 3 11 6 26 6 33 0 6 5 12 10 12 6 0
10 -7 8 -16 -2 -10 7 -20 20 -25 15 -6 21 -5 17 1 -3 6 -13 10 -20 10 -8 0
-12 6 -9 14 3 8 13 13 22 11 9 -1 20 3 24 9 5 8 11 7 20 -3 10 -10 10 -12 1
-7 -9 5 -13 0 -13 -13 0 -12 5 -21 10 -21 6 0 21 -9 33 -21 19 -17 23 -18 25
-5 2 9 8 16 14 16 7 0 6 5 -1 14 -9 11 -8 15 5 20 23 9 72 7 78 -3 3 -5 0 -9
-7 -8 -6 0 -21 -1 -31 -1 -18 -2 -18 -3 -1 -22 9 -10 21 -34 25 -52 l7 -33 13
43 c7 23 17 42 21 42 5 0 2 -18 -6 -41 -8 -23 -12 -52 -9 -65 4 -14 2 -24 -5
-24 -6 0 -8 8 -6 18 3 9 -1 4 -9 -13 -8 -16 -15 -42 -16 -57 0 -16 -5 -28 -11
-28 -5 0 -8 -4 -5 -9 3 -5 -1 -28 -10 -52 -19 -54 -26 -101 -13 -94 5 4 9 13
9 21 0 8 8 26 17 41 10 14 18 33 18 42 1 9 5 31 10 49 5 24 10 30 16 20 7 -10
9 -11 9 0 0 7 6 10 13 7 6 -4 4 0 -6 8 -18 15 -18 16 1 35 18 18 22 19 41 6
13 -9 18 -21 14 -31 -5 -13 -2 -15 11 -10 11 4 15 3 11 -4 -4 -6 -13 -8 -21
-5 -16 6 -27 -9 -30 -44 -1 -14 0 -19 3 -12 5 13 24 17 22 5 -3 -18 14 -52 22
-47 5 3 9 0 9 -5 0 -6 -5 -11 -12 -11 -6 0 -8 -3 -5 -7 4 -3 2 -12 -4 -20 -6
-7 -8 -13 -3 -13 5 0 17 14 26 30 9 17 13 30 8 30 -5 0 -16 14 -24 32 -19 37
-7 60 18 35 19 -18 21 -31 4 -21 -7 4 -8 3 -4 -4 4 -6 14 -8 24 -5 14 6 15 4
5 -9 -7 -8 -10 -17 -7 -20 3 -4 -2 -20 -10 -37 -9 -17 -16 -32 -15 -33 1 -2
-1 -13 -5 -26 -6 -16 -13 -21 -30 -18 -20 4 -22 1 -18 -20 2 -13 8 -27 13 -30
5 -3 4 -15 -3 -27 -6 -12 -24 -53 -39 -92 l-26 -70 -89 0 c-101 0 -97 -6 -63
95 25 76 33 87 51 73 9 -8 18 -5 32 8 11 11 14 19 7 19 -8 0 -9 5 -2 19 8 14
7 20 -4 25 -8 3 -15 1 -15 -5 0 -6 -6 -9 -13 -6 -10 4 -27 -26 -55 -94 -23
-54 -42 -104 -42 -111 0 -14 -25 24 -36 55 -3 9 -10 17 -15 17 -9 0 0 -28 24
-74 17 -31 11 -54 -25 -108 -10 -14 -15 -34 -12 -45 4 -13 3 -14 -4 -5 -7 11
-14 7 -31 -15 -16 -21 -19 -22 -11 -5 8 17 8 22 -2 20 -7 -2 -16 -11 -20 -20
-4 -10 -14 -18 -23 -18 -20 0 -19 6 10 44 14 18 22 36 17 41 -4 4 3 2 16 -4
18 -10 27 -10 38 -1 14 12 9 35 -6 25 -4 -3 -13 2 -20 10 -13 16 -85 21 -75 6
3 -6 -6 -6 -24 -1 -21 6 -31 5 -35 -3 -3 -9 -5 -8 -5 1 -1 9 -12 10 -41 6 -22
-4 -77 -8 -122 -9 -146 -4 -133 1 -153 -59 -29 -86 -30 -86 151 -86 l157 0 23
28 c13 15 24 22 24 15 0 -6 -4 -15 -10 -18 -15 -9 -12 -25 5 -25 10 0 15 10
16 28 0 24 1 24 8 7 5 -11 7 -23 4 -27 -2 -5 5 -8 17 -8 12 0 18 5 15 10 -3 6
-1 10 4 10 6 0 11 -4 11 -10 0 -6 44 -10 113 -10 90 1 109 3 97 13 -30 23 -92
137 -85 155 5 15 9 14 25 -8 11 -14 18 -30 15 -37 -2 -6 -1 -13 3 -15 4 -2 18
-25 32 -53 l25 -50 272 -3 272 -2 -33 97 c-19 54 -40 116 -49 138 -17 45 -28
78 -29 85 -1 18 -52 146 -60 151 -4 3 -10 20 -13 38 -4 36 -52 185 -68 216 -6
11 -12 22 -12 25 -3 24 -52 157 -60 162 -5 4 -6 8 -1 8 5 0 4 6 -1 13 -6 6
-16 36 -23 65 -6 28 -16 52 -21 52 -5 0 -9 11 -9 25 0 22 -30 115 -157 483
l-25 72 -52 0 -52 0 -26 -77z m-68 -672 c0 -5 -9 -7 -20 -4 -11 3 -20 7 -20 9
0 2 9 4 20 4 11 0 20 -4 20 -9z m25 -1 c3 -5 1 -10 -4 -10 -6 0 -11 5 -11 10
0 6 2 10 4 10 3 0 8 -4 11 -10z m34 -23 c-11 -10 -69 -16 -64 -7 3 6 15 10 26
10 10 0 19 5 19 12 0 9 3 9 12 0 6 -6 10 -13 7 -15z m156 -25 c-8 -8 -25 10
-19 20 4 6 9 5 15 -3 4 -7 6 -15 4 -17z m148 11 c-7 -2 -19 -2 -25 0 -7 3 -2
5 12 5 14 0 19 -2 13 -5z m-316 -9 c-3 -3 -12 -4 -19 -1 -8 3 -5 6 6 6 11 1
17 -2 13 -5z m409 -10 c-3 -8 -2 -12 4 -9 6 3 10 -1 10 -9 0 -9 -4 -16 -10
-16 -6 0 -6 -9 0 -26 12 -30 13 -64 2 -48 -8 12 -52 25 -52 16 0 -4 -14 -8
-30 -9 -21 -2 -30 2 -30 13 0 10 6 14 15 10 9 -3 19 3 26 16 9 16 8 19 -3 12
-11 -6 -11 -5 0 8 10 13 9 18 -5 29 -15 13 -12 15 23 20 21 3 43 7 48 8 4 0 5
-6 2 -15z m-506 -10 c0 -8 -4 -12 -10 -9 -5 3 -10 10 -10 16 0 5 5 9 10 9 6 0
10 -7 10 -16z m363 1 c-3 -9 -8 -14 -10 -11 -3 3 -2 9 2 15 9 16 15 13 8 -4z
m-249 -16 c4 6 12 11 17 11 6 0 8 -4 5 -9 -4 -5 0 -11 6 -14 7 -3 0 -4 -16 -3
-16 1 -31 8 -33 16 -4 12 -3 12 5 1 7 -9 12 -10 16 -2z m-91 -23 c4 -10 1 -13
-9 -9 -15 6 -19 23 -5 23 5 0 11 -7 14 -14z m-50 -9 c-6 16 -5 16 10 5 13 -11
14 -17 5 -32 -12 -18 -12 -18 -29 1 -9 10 -21 19 -28 19 -6 0 -11 5 -11 10 0
6 13 4 30 -5 27 -14 29 -14 23 2z m-5 -72 c-3 -3 -9 2 -12 12 -6 14 -5 15 5 6
7 -7 10 -15 7 -18z m529 11 c-3 -8 -1 -17 6 -19 7 -3 2 -4 -10 -4 -22 1 -26
16 -8 29 15 11 18 10 12 -6z m63 -4 c0 -4 -10 -9 -22 -9 -18 -2 -20 0 -8 7 18
12 30 13 30 2z m-570 -21 c0 -14 -38 -24 -52 -14 -9 5 -3 10 17 14 17 4 31 7
33 8 1 0 2 -3 2 -8z m520 -15 c0 -2 -7 -7 -16 -10 -8 -3 -12 -2 -9 4 6 10 25
14 25 6z m10 -51 c0 -8 -2 -15 -4 -15 -2 0 -6 7 -10 15 -3 8 -1 15 4 15 6 0
10 -7 10 -15z m-465 -4 c3 -5 2 -12 -3 -15 -5 -3 -9 1 -9 9 0 17 3 19 12 6z
m-65 -35 c0 -3 -4 -8 -10 -11 -5 -3 -10 -1 -10 4 0 6 5 11 10 11 6 0 10 -2 10
-4z m19 -47 c-18 -11 -31 11 -17 29 10 11 13 10 21 -4 6 -11 5 -19 -4 -25z
m441 -119 c0 -5 -4 -10 -10 -10 -5 0 -10 5 -10 10 0 6 5 10 10 10 6 0 10 -4
10 -10z m111 -82 c1 -4 2 -13 3 -20 0 -6 11 -13 24 -15 16 -2 21 1 16 9 -4 7
-3 8 5 4 6 -4 10 -15 9 -23 -2 -12 5 -17 29 -17 17 -1 35 -5 40 -10 4 -5 3 -6
-3 -3 -7 4 -18 -1 -25 -10 -8 -9 -9 -14 -3 -10 13 7 27 -17 17 -27 -11 -11
-193 -7 -193 5 0 5 6 7 13 3 6 -4 5 -1 -3 7 -8 8 -20 21 -27 29 -11 13 -12 13
-7 -1 5 -17 -20 -34 -37 -23 -5 3 -9 1 -9 -5 0 -5 8 -12 18 -14 10 -3 6 -5
-11 -6 -36 -1 -45 23 -20 57 11 15 22 35 26 45 5 14 11 16 25 8 14 -7 22 -5
34 8 15 17 77 25 79 9z m-91 -118 c0 -5 -2 -10 -4 -10 -3 0 -8 5 -11 10 -3 6
-1 10 4 10 6 0 11 -4 11 -10z"/>
<path d="M2850 2668 c0 -4 4 -8 9 -8 6 0 12 4 15 8 3 5 -1 9 -9 9 -8 0 -15 -4
-15 -9z"/>
<path d="M2990 2622 c0 -5 7 -9 15 -9 8 0 12 4 9 9 -3 4 -9 8 -15 8 -5 0 -9
-4 -9 -8z"/>
<path d="M1739 3828 c-9 -31 -6 -47 9 -51 11 -3 8 -5 -9 -6 -17 -1 -30 -9 -37
-27 -7 -14 -17 -22 -22 -19 -6 4 -10 -7 -9 -27 1 -18 3 -25 6 -15 5 19 14 22
29 7 7 -7 16 -4 29 10 10 11 23 20 30 20 6 0 20 7 31 16 10 8 13 13 7 9 -8 -4
-13 0 -13 9 0 9 -4 16 -10 16 -5 0 -9 3 -9 8 5 27 -3 52 -16 52 -8 0 -15 -1
-16 -2z"/>
<path d="M3152 3668 c2 -6 10 -14 16 -16 7 -2 10 2 6 12 -7 18 -28 22 -22 4z"/>
<path d="M3196 3481 c-9 -9 -13 -21 -9 -25 8 -8 9 -13 12 -41 1 -13 4 -13 14
-3 12 10 12 15 0 26 -15 15 -18 36 -4 28 5 -3 11 1 15 9 8 22 -9 27 -28 6z"/>
<path d="M3225 3400 c4 -6 11 -8 16 -5 14 9 11 15 -7 15 -8 0 -12 -5 -9 -10z"/>
<path d="M2580 3189 c0 -6 7 -8 17 -5 9 4 20 1 24 -6 4 -7 11 -9 16 -5 9 10
-16 27 -39 27 -10 0 -18 -5 -18 -11z"/>
<path d="M2593 3138 c-5 -7 -8 -19 -7 -25 1 -7 2 -19 3 -25 2 -19 31 22 31 44
0 21 -13 24 -27 6z"/>
<path d="M2716 3125 c-9 -26 -7 -32 5 -12 6 10 9 21 6 23 -2 3 -7 -2 -11 -11z"/>
<path d="M2801 3082 c-1 -8 -6 -10 -13 -6 -10 5 -10 4 -1 -6 15 -16 28 -8 20
12 -4 11 -6 11 -6 0z"/>
<path d="M2558 3031 c-16 -9 -28 -20 -28 -24 0 -5 5 -5 10 -2 6 4 19 1 28 -6
14 -11 15 -11 5 1 -10 11 -9 16 5 26 26 19 11 23 -20 5z"/>
<path d="M2580 2940 c-8 -5 -10 -10 -5 -10 6 0 17 5 25 10 8 5 11 10 5 10 -5
0 -17 -5 -25 -10z"/>
<path d="M2785 2890 c3 -5 8 -10 11 -10 2 0 4 5 4 10 0 6 -5 10 -11 10 -5 0
-7 -4 -4 -10z"/>
<path d="M2747 2815 c-3 -5 6 -10 19 -10 13 0 24 5 24 10 0 6 -9 11 -20 11
-11 0 -21 -5 -23 -11z"/>
<path d="M2575 2780 c-3 -5 -1 -10 4 -10 6 0 11 5 11 10 0 6 -2 10 -4 10 -3 0
-8 -4 -11 -10z"/>
<path d="M1288 2757 c-177 -10 -234 -27 -75 -21 224 7 379 16 404 24 37 11
-110 10 -329 -3z"/>
<path d="M2560 2748 c0 -9 -6 -21 -12 -25 -15 -9 -20 -43 -8 -43 5 0 12 10 16
23 4 12 10 24 15 27 4 3 4 12 -1 20 -8 13 -10 12 -10 -2z"/>
<path d="M2617 2740 c-3 -11 -2 -20 3 -20 12 0 21 28 11 35 -5 2 -11 -4 -14
-15z"/>
<path d="M1010 2730 c0 -11 31 -11 75 0 26 7 22 8 -22 9 -30 0 -53 -3 -53 -9z"/>
<path d="M1482 2105 c-6 -14 -8 -25 -3 -25 8 0 23 41 17 47 -1 2 -8 -8 -14
-22z"/>
<path d="M1317 2089 c4 -13 8 -18 11 -10 2 7 -1 18 -6 23 -8 8 -9 4 -5 -13z"/>
<path d="M1344 2078 c-9 -14 -13 -49 -5 -44 4 3 20 -1 35 -9 24 -13 28 -12 33
3 3 9 8 22 11 27 3 6 -1 4 -9 -2 -13 -13 -49 -18 -49 -7 0 3 4 13 9 23 8 13 6
18 -5 18 -8 0 -17 -4 -20 -9z"/>
<path d="M1456 2045 c4 -8 8 -15 10 -15 2 0 4 7 4 15 0 8 -4 15 -10 15 -5 0
-7 -7 -4 -15z"/>
<path d="M1430 2031 c0 -5 7 -15 17 -22 15 -13 15 -12 4 9 -12 23 -21 28 -21
13z"/>
<path d="M1800 1915 c0 -18 1 -18 36 0 l29 15 -32 0 c-23 0 -33 -5 -33 -15z"/>
<path d="M1716 1674 c-8 -21 -8 -24 5 -24 5 0 8 4 5 9 -4 5 -1 11 6 13 8 3 9
6 1 11 -6 4 -14 0 -17 -9z"/>
<path d="M1735 1650 c-10 -11 -14 -20 -9 -21 5 0 0 -5 -11 -10 -16 -7 -14 -8
10 -4 54 10 59 12 63 25 4 11 -14 29 -29 30 -3 0 -14 -9 -24 -20z"/>
<path d="M3425 1519 c-4 -6 -5 -12 -2 -15 2 -3 7 2 10 11 7 17 1 20 -8 4z"/>
<path d="M1988 1303 c7 -3 16 -2 19 1 4 3 -2 6 -13 5 -11 0 -14 -3 -6 -6z"/>
</g>
</svg>
